<svg width="1200" height="630" viewBox="0 0 1200 630" fill="none" xmlns="http://www.w3.org/2000/svg">
  <!-- Background -->
  <rect width="1200" height="630" fill="#F5F1E8"/>

  <!-- Main card -->
  <rect x="60" y="60" width="1080" height="510" rx="24" fill="white"/>
  <rect x="60" y="60" width="1080" height="510" rx="24" stroke="#e5e5e5" stroke-width="2"/>

  <!-- Header -->
  <text x="600" y="150" font-family="Arial, sans-serif" font-size="64" font-weight="900" text-anchor="middle" fill="#1a1a1a">NISYUU READER</text>

  <!-- Underline -->
  <rect x="400" y="170" width="400" height="4" fill="#1a1a1a"/>

  <!-- Subtitle -->
  <text x="600" y="210" font-family="Arial, sans-serif" font-size="24" letter-spacing="4" text-anchor="middle" fill="#666">DAILY NEWS SELECTION</text>

  <!-- Article mock - main -->
  <rect x="120" y="260" width="480" height="12" fill="#1a1a1a"/>
  <rect x="120" y="285" width="430" height="8" fill="#ccc"/>
  <rect x="120" y="305" width="410" height="8" fill="#ccc"/>
  <rect x="120" y="325" width="385" height="8" fill="#ccc"/>

  <!-- Image placeholder -->
  <rect x="630" y="260" width="450" height="160" rx="8" fill="#e5e5e5"/>

  <!-- Secondary articles -->
  <rect x="120" y="390" width="240" height="10" fill="#1a1a1a"/>
  <rect x="120" y="410" width="240" height="6" fill="#ccc"/>
  <rect x="120" y="425" width="216" height="6" fill="#ccc"/>

  <rect x="420" y="390" width="240" height="10" fill="#1a1a1a"/>
  <rect x="420" y="410" width="240" height="6" fill="#ccc"/>
  <rect x="420" y="425" width="216" height="6" fill="#ccc"/>

  <rect x="720" y="390" width="240" height="10" fill="#1a1a1a"/>
  <rect x="720" y="410" width="240" height="6" fill="#ccc"/>
  <rect x="720" y="425" width="216" height="6" fill="#ccc"/>

  <!-- Footer -->
  <line x1="120" y1="480" x2="1080" y2="480" stroke="#e5e5e5" stroke-width="2"/>
  <text x="600" y="520" font-family="Arial, sans-serif" font-size="18" letter-spacing="2" text-anchor="middle" fill="#999">CURATED NEWS FROM VARIOUS SOURCES</text>
</svg>
